<?xml version="1.0" encoding="iso-8859-1"?>
<!-- Generator: Adobe Illustrator 19.0.0, SVG Export Plug-In . SVG Version: 6.00 Build 0)  -->
<svg version="1.1"  width='20px' height='20px' id="Layer_1" xmlns="http://www.w3.org/2000/svg" xmlns:xlink="http://www.w3.org/1999/xlink" x="0px" y="0px"
	 viewBox="0 0 488 488" style="enable-background:new 0 0 488 488;" xml:space="preserve">
<circle style="fill:#333131;" cx="51.2" cy="244" r="51.2"/>
<path style="fill:#474646;" d="M51.2,295.2C23.2,295.2,0,272,0,244"/>
<g>
	<path style="fill:#1c1b1b;" d="M102.4,244c0,28-23.2,51.2-51.2,51.2"/>
	<path style="fill:#1c1b1b;" d="M15.2,208c20-20,52-20,72,0s20,52,0,72"/>
</g>
<circle style="fill:#333131;" cx="244" cy="244" r="51.2"/>
<path style="fill:#474646;" d="M244,295.2c-28,0-51.2-23.2-51.2-51.2"/>
<g>
	<path style="fill:#1c1b1b;" d="M295.2,244c0,28-23.2,51.2-51.2,51.2"/>
	<path style="fill:#1c1b1b;" d="M208,208c20-20,52-20,72,0s20,52,0,72"/>
</g>
<circle style="fill:#333131;" cx="436.8" cy="244" r="51.2"/>
<path style="fill:#474646;" d="M436.8,295.2c-28,0-51.2-23.2-51.2-51.2"/>
<g>
	<path style="fill:#1c1b1b;" d="M488,244c0,28-23.2,51.2-51.2,51.2"/>
	<path style="fill:#1c1b1b;" d="M400.8,208c20-20,52-20,72,0s20,52,0,72"/>
</g>
<g>
</g>
<g>
</g>
<g>
</g>
<g>
</g>
<g>
</g>
<g>
</g>
<g>
</g>
<g>
</g>
<g>
</g>
<g>
</g>
<g>
</g>
<g>
</g>
<g>
</g>
<g>
</g>
<g>
</g>
</svg>
